<svg
   version="1.1"
   id="Capa_1"
   x="0px"
   y="0px"
   viewBox="0 0 2500 2000"
   style="enable-background:new 0 0 2500 2000;"
   xml:space="preserve"/>
<style
   type="text/css"
   id="style2">
	.st0{fill-rule:evenodd;clip-rule:evenodd;fill:#FF4040;}
	.st1{display:none;}
	.st2{display:inline;fill:none;stroke:#000000;stroke-width:0.25;stroke-miterlimit:10;}
	.st3{display:inline;fill:none;stroke:#000000;stroke-miterlimit:10;}
	.st4{fill-rule:evenodd;clip-rule:evenodd;fill:#FFFFFF;}
	.st5{fill:none;stroke:#FFFFFF;stroke-width:40;stroke-miterlimit:10;}
</style>
<g
   id="Capa_1_4_">
	<g
   id="Capa_1_3_">
		<g
   id="Capa_1_2_">
			<g
   id="Capa_1_1_">
				<g
   id="g5">
					<path
   id="svg_1"
   class="st0"
   d="M730.9,1843.1c-38.7-190.3-107.1-348.6-189.9-495.4c-61.4-108.9-132.5-209.4-198.4-314.9       c-22-35.2-40.9-72.5-62-109.1c-42.2-73.1-76.4-157.9-74.3-267.9c2.1-107.5,33.2-193.7,78-264.2c73.7-115.9,197.2-211,362.9-236       c135.5-20.4,262.5,14.1,352.5,66.7c73.6,43,130.6,100.5,173.9,168.3c45.2,70.7,76.4,154.3,79,263.2       c1.3,55.8-7.8,107.5-20.7,150.4c-13,43.4-34,79.7-52.6,118.5c-36.4,75.7-82.1,145-127.9,214.3       C915.1,1343.7,787,1554.4,730.9,1843.1z" />
				</g>
			</g>
		</g>
		<g
   id="Capa_3"
   class="st1">
			<line
   class="st2"
   x1="730.9"
   y1="1843.1"
   x2="730.9"
   y2="149.7"
   id="line9" />
			<line
   class="st3"
   x1="206.2"
   y1="876.5"
   x2="1273.1"
   y2="876.5"
   id="line11" />
		</g>
	</g>
</g>
<g
   id="Capa_2_2_"
   transform="matrix(1.3056087,0,0,1.3056087,-220.79107,-108.52164)">
	<g
   id="Capa_2_1_">
		<path
   class="st4"
   d="M 783,988.6"
   id="path16"
   inkscape:connector-curvature="0"
   style="clip-rule:evenodd;fill:#ffffff;fill-rule:evenodd" />
		<g
   id="g36">
			<circle
   class="st5"
   cx="728.59998"
   cy="509.29999"
   r="104"
   id="circle18"
   style="fill:none;stroke:#ffffff;stroke-width:40;stroke-miterlimit:10" />
			<path
   class="st4"
   d="m 622.9,530.8 h -38.2 c -4.3,0 -7.7,-3.4 -7.7,-7.7 v -30.8 c 0,-4.3 3.4,-7.7 7.7,-7.7 h 38.2 c 4.3,0 7.7,3.4 7.7,7.7 v 30.8 c 0,4.2 -3.4,7.7 -7.7,7.7 z"
   id="path20"
   inkscape:connector-curvature="0"
   style="clip-rule:evenodd;fill:#ffffff;fill-rule:evenodd" />
			<path
   class="st4"
   d="M 874.3,530.8 H 836 c -4.3,0 -7.7,-3.4 -7.7,-7.7 v -30.8 c 0,-4.3 3.4,-7.7 7.7,-7.7 h 38.2 c 4.3,0 7.7,3.4 7.7,7.7 v 30.8 c -0.1,4.2 -3.5,7.7 -7.6,7.7 z"
   id="path22"
   inkscape:connector-curvature="0"
   style="clip-rule:evenodd;fill:#ffffff;fill-rule:evenodd" />
			<path
   class="st4"
   d="m 709.7,651.6 v -38.2 c 0,-4.3 3.4,-7.7 7.7,-7.7 h 30.8 c 4.3,0 7.7,3.4 7.7,7.7 v 38.2 c 0,4.3 -3.4,7.7 -7.7,7.7 h -30.8 c -4.3,0 -7.7,-3.4 -7.7,-7.7 z"
   id="path24"
   inkscape:connector-curvature="0"
   style="clip-rule:evenodd;fill:#ffffff;fill-rule:evenodd" />
			<path
   class="st4"
   d="m 708.3,401 v -38.2 c 0,-4.3 3.4,-7.7 7.7,-7.7 h 30.8 c 4.3,0 7.7,3.4 7.7,7.7 V 401 c 0,4.3 -3.4,7.7 -7.7,7.7 H 716 c -4.3,0 -7.7,-3.5 -7.7,-7.7 z"
   id="path26"
   inkscape:connector-curvature="0"
   style="clip-rule:evenodd;fill:#ffffff;fill-rule:evenodd" />
			<path
   class="st4"
   d="m 636.2,443.5 -27.1,-27.1 c -3,-3 -3,-7.8 0,-10.9 l 21.7,-21.7 c 3,-3 7.8,-3 10.9,0 l 27.1,27.1 c 3,3 3,7.8 0,10.9 l -21.7,21.7 c -3,3 -7.8,3 -10.9,0 z"
   id="path28"
   inkscape:connector-curvature="0"
   style="clip-rule:evenodd;fill:#ffffff;fill-rule:evenodd" />
			<path
   class="st4"
   d="m 815.4,622.5 -27.1,-27.1 c -3,-3 -3,-7.8 0,-10.9 L 810,562.8 c 3,-3 7.8,-3 10.9,0 l 27.1,27.1 c 3,3 3,7.8 0,10.9 l -21.7,21.7 c -3.1,3 -7.9,3 -10.9,0 z"
   id="path30"
   inkscape:connector-curvature="0"
   style="clip-rule:evenodd;fill:#ffffff;fill-rule:evenodd" />
			<path
   class="st4"
   d="m 668.8,599.7 -27.1,27.1 c -3,3 -7.8,3 -10.9,0 L 609.1,605 c -3,-3 -3,-7.8 0,-10.9 L 636.2,567 c 3,-3 7.8,-3 10.9,0 l 21.7,21.7 c 3,3.1 3,8.1 0,11 z"
   id="path32"
   inkscape:connector-curvature="0"
   style="clip-rule:evenodd;fill:#ffffff;fill-rule:evenodd" />
			<path
   class="st4"
   d="m 849.4,417.7 -27.1,27.1 c -3,3 -7.8,3 -10.9,0 l -21.7,-21.7 c -3,-3 -3,-7.8 0,-10.9 l 27.1,-27.1 c 3,-3 7.8,-3 10.9,0 l 21.7,21.7 c 2.9,3.1 2.9,7.9 0,10.9 z"
   id="path34"
   inkscape:connector-curvature="0"
   style="clip-rule:evenodd;fill:#ffffff;fill-rule:evenodd" />
		</g>
	</g>
	<g
   id="g43">
		<path
   class="st4"
   d="m 593.1,700.5 60.1,-16.7 c 0,0 11.8,-6.1 18.5,-3.9 6.8,2.1 11.4,6.4 11.4,6.4 L 826,768.1 c 0,0 19.2,19.8 3.2,37.6 -16,17.8 -33.5,7.8 -33.5,7.8 l -62,-35.3 -7.5,12.8 64.9,36.7 c 0,0 25.7,7.8 43.8,-11.4 18.2,-19.2 12.5,-38.1 12.5,-38.1 L 947,749.5 c 0,0 27.3,-6.2 34.4,25.1 5.6,24.9 -15.9,35.2 -15.9,35.2 L 754,869 c 0,0 -10.2,3.4 -19.7,1.6 -9.5,-1.8 -13.4,-4.1 -13.4,-4.1 L 623.6,806.9 593.1,700.5"
   id="path39"
   inkscape:connector-curvature="0"
   style="clip-rule:evenodd;fill:#ffffff;fill-rule:evenodd" />
		
			<rect
   x="493.60001"
   y="715.90002"
   transform="matrix(0.9612,-0.2757,0.2757,0.9612,-191.4983,180.3055)"
   class="st4"
   width="103.9"
   height="110.8"
   id="rect41"
   style="clip-rule:evenodd;fill:#ffffff;fill-rule:evenodd" />
	</g>
</g>
</svg>
