<?xml version="1.0" encoding="utf-8"?>
<!-- Generator: Adobe Illustrator 24.3.0, SVG Export Plug-In . SVG Version: 6.00 Build 0)  -->
<svg version="1.1" xmlns="http://www.w3.org/2000/svg" xmlns:xlink="http://www.w3.org/1999/xlink" x="0px" y="0px"
	 viewBox="0 0 2500 2000" style="enable-background:new 0 0 2500 2000;" xml:space="preserve">
<style type="text/css">
	.st0{fill-rule:evenodd;clip-rule:evenodd;fill:#2A81CB;}
	.st1{fill-rule:evenodd;clip-rule:evenodd;fill:#FFFFFF;}
	.st2{display:none;}
	.st3{display:inline;fill:none;stroke:#000000;stroke-width:0.25;stroke-miterlimit:10;}
	.st4{display:inline;fill:none;stroke:#000000;stroke-miterlimit:10;}
</style>
<g id="Capa_1">
	<g id="Capa_1_1_">
		<g>
			<path id="svg_1" class="st0" d="M730.9,1846.7c-38.7-190.3-107.1-348.6-189.9-495.4c-61.4-108.9-132.5-209.4-198.4-314.9
				c-22-35.2-40.9-72.5-62-109.1c-42.2-73.1-76.4-157.9-74.3-267.9c2.1-107.5,33.2-193.7,78-264.2c73.7-115.9,197.2-211,362.9-236
				c135.5-20.4,262.5,14.1,352.5,66.7c73.6,43,130.6,100.5,173.9,168.3c45.2,70.7,76.4,154.3,79,263.2
				c1.3,55.8-7.8,107.5-20.7,150.4c-13,43.4-34,79.7-52.6,118.5c-36.4,75.7-82.1,145-127.9,214.3
				C915.1,1347.3,787,1558,730.9,1846.7z"/>
		</g>
	</g>
</g>
<g id="Capa_2">
	<g id="Capa_2_1_">
		<g>
			<path class="st1" d="M1090.8,667.3H552V476.4c0-9.1,7.4-16.6,16.6-16.6h505.8c9.1,0,16.6,7.4,16.6,16.6v190.9H1090.8z"/>
			
				<ellipse id="svg_2_2_" transform="matrix(0.7071 -0.7071 0.7071 0.7071 -443.7734 546.9285)" class="st1" cx="438.3" cy="809.1" rx="71" ry="71"/>
			<circle id="svg_2_1_" class="st1" cx="981.8" cy="809.1" r="71"/>
			<path class="st1" d="M895.2,771.8H527.9c-1.2,0-2.1-0.9-2.1-2.1v-81.3c0-1.2,0.9-2.1,2.1-2.1h367.3c1.2,0,2.1,0.9,2.1,2.1v81.3
				C897.4,770.9,896.4,771.8,895.2,771.8z"/>
			<path class="st1" d="M348.2,688.8v-42.5c0-14.6,5.6-28.7,14.4-39.3l56.7-67.4c9.2-11.1,22.1-17.3,35.4-17.3h77v165.4L348.2,688.8
				z"/>
			<path class="st1" d="M533.6,766.4c0,5.5-7.1,7.6-10.2,3.2c-12.8-18.2-38.6-44.1-82.2-44.1c-49.7,0-76.9,33.2-87.6,50.4
				c-1.6,2.5-5.5,1.5-5.5-1.6v-86.4c0-0.7,0.5-1.3,1.3-1.3h182.2c1.3,0,2.5,1.2,2.5,2.5L533.6,766.4z"/>
			<path class="st1" d="M889.4,766.5c0,5.3,7,7.5,10,3.1c12.7-18.2,38.6-44.4,82.5-44.4c44,0,70.2,25.9,83.2,43.7
				c3.1,4.3,9.9,2.1,9.9-3.2v-73.9c0-3.1-2.4-5.5-5.5-5.5H888.7L889.4,766.5z"/>
			<polygon class="st0" points="439.9,570.1 392.9,617.2 392.9,645.1 509.3,645.1 509.3,570.1 			"/>
		</g>
	</g>
</g>
<g id="Capa_3" class="st2">
	<line class="st3" x1="730.9" y1="1846.7" x2="730.9" y2="153.3"/>
	<line class="st4" x1="206.2" y1="880.1" x2="1273.1" y2="880.1"/>
</g>
</svg>
