<svg version="1.1" id="Capa_1" xmlns="http://www.w3.org/2000/svg" xmlns:xlink="http://www.w3.org/1999/xlink" x="0px" y="0px"
	 viewBox="0 0 2500 2000" style="enable-background:new 0 0 2500 2000;" xml:space="preserve">
<style type="text/css">
	.st0{fill-rule:evenodd;clip-rule:evenodd;fill:#F79520;}
	.st1{display:none;}
	.st2{display:inline;}
	.st3{fill:none;stroke:#000000;stroke-width:0.25;stroke-miterlimit:10;}
	.st4{fill:none;stroke:#000000;stroke-miterlimit:10;}
	.st5{fill:#FFFFFF;}
</style>
<g id="Capa_1_4_">
	<g id="Capa_1_3_">
		<g id="Capa_1_2_">
			<g id="Capa_1_1_">
				<g>
					<path id="svg_1" class="st0" d="M730.9,1846.7c-38.7-190.3-107.1-348.6-189.9-495.4c-61.4-108.9-132.5-209.4-198.4-314.9
						c-22-35.2-40.9-72.5-62-109.1c-42.2-73.1-76.4-157.9-74.3-267.9c2.1-107.5,33.2-193.7,78-264.2c73.7-115.9,197.2-211,362.9-236
						c135.5-20.4,262.5,14.1,352.5,66.7c73.6,43,130.6,100.5,173.9,168.3c45.2,70.7,76.4,154.3,79,263.2
						c1.3,55.8-7.8,107.5-20.7,150.4c-13,43.4-34,79.7-52.6,118.5c-36.4,75.7-82.1,145-127.9,214.3
						C915.1,1347.3,787,1558,730.9,1846.7z"/>
				</g>
			</g>
		</g>
	</g>
	<g id="Capa_3" class="st1">
		<g id="Capa_3_1_" class="st2">
			<line class="st3" x1="730.9" y1="1846.7" x2="730.9" y2="153.3"/>
			<line class="st4" x1="206.2" y1="880.1" x2="1273.1" y2="880.1"/>
		</g>
	</g>
</g>
<g id="Capa_3_2_">
	<g>
		<path class="st5" d="M989.3,880.1H469.6v-27.8c0-15.4,12.4-27.8,27.8-27.8h464.1c15.4,0,27.8,12.4,27.8,27.8V880.1z"/>
		<path class="st5" d="M954.4,807H504.6v-18.5c0-8.5,6.9-15.3,15.3-15.3H939c8.5,0,15.3,6.9,15.3,15.3V807H954.4z"/>
		<rect x="555.2" y="557.9" class="st5" width="69.1" height="218.9"/>
		<rect x="694.9" y="557.9" class="st5" width="69.1" height="218.9"/>
		<rect x="835.7" y="557.9" class="st5" width="69.1" height="218.9"/>
		<path class="st5" d="M954.4,509.2H504.6v14.1c0,8.5,6.9,15.3,15.3,15.3H939c8.5,0,15.3-6.9,15.3-15.3v-14.1H954.4z"/>
		<rect x="469.6" y="481.6" class="st5" width="519.7" height="27.6"/>
		<polygon class="st5" points="469.6,481.6 728.7,380.4 989.3,481.6 		"/>
	</g>
</g>
</svg>
